# xmcd
#
# Track frame offsets: 
#        150
#        22777
#        42752
#        65987
#        82977
#        101965
#        125520
#        149140
#        166062
#        180785
#
# Disc length: 2669 seconds
#
# Revision: 0
# Processed by: cddbd v1.5.2PL0 Copyright (c) Steve Scherf et al.
# Submitted via: ExactAudioCopy v1.0b3
#
DISCID=810a6b0a
DTITLE=鈴村健一＆岩田光央 - SOUL IGNITION
DYEAR=1900
DGENRE=
TTITLE0=VALUE
TTITLE1=いぬ
TTITLE2=Cal
TTITLE3=新しい街
TTITLE4=地球儀
TTITLE5=いこう！
TTITLE6=あたりまえのカンパイ
TTITLE7=Slow Show
TTITLE8=Hi-route
TTITLE9=PISCES（Studio Recording ver.）
EXTD=
EXTT0=
EXTT1=
EXTT2=
EXTT3=
EXTT4=
EXTT5=
EXTT6=
EXTT7=
EXTT8=
EXTT9=
PLAYORDER=
